<?xml version="1.0" encoding="utf-8" ?>
<svg xmlns="http://www.w3.org/2000/svg" xmlns:xlink="http://www.w3.org/1999/xlink" width="1024" height="1024">
	<path fill="#FEFEFE" d="M0 0L1024 0L1024 3.89046L1024 504.053L1024 663.745L1024 1024L943.955 1024L80.6872 1024L0 1024L0 660.604L0 504.073L0 3.6174L0 0Z"/>
	<path fill="#111" d="M0 0L1024 0L1024 3.89046L1024 504.053L581.282 504.092L479.119 504.014C470.567 504.02 462.005 503.938 453.454 504.071C447.122 504.169 440.756 504.64 434.436 504.112L0 504.073L0 3.6174L0 0Z"/>
	<path fill="#9A6813" d="M0 0L1024 0L1024 3.89046C1005.13 26.7857 985.11 48.73 965.335 70.8401L927.773 113.314L816.047 239.785C789.535 269.841 762.739 299.587 736.866 330.204L737.069 120.419C720.391 119.587 703.342 120.13 686.626 120.081L584.916 120.039L286.641 119.967C286.274 189.828 287.43 259.771 286.382 329.613C280.981 324.454 276.032 318.409 271.081 312.809L244.96 282.905Q211.292 243.729 176.817 205.261L65.949 79.3854L30.4937 38.7077C20.2291 27.1177 9.54743 15.8177 0 3.6174L0 0Z"/>
	<path fill="#9A6813" d="M322.376 366.343C337.721 365.362 353.403 365.997 368.787 365.997L451.313 366.004L704.682 366.019C676.102 398.701 646.546 430.588 617.756 463.092L592.642 492.017C589.179 495.943 585.517 501.081 581.282 504.092L479.119 504.014C470.567 504.02 462.005 503.938 453.454 504.071C447.122 504.169 440.756 504.64 434.436 504.112C437.13 504.083 439.825 504.031 442.52 504.093L356.529 405.587Q345.05 392.362 333.411 379.277C329.705 375.047 325.693 370.886 322.376 366.343Z"/>
	<path fill="#FEFEFE" d="M299.027 153.696L725.324 153.525L725.283 288.719L725.269 329.146C725.268 337.135 725.56 345.275 725.045 353.242L724.357 353.809L547.757 353.19Q473.777 354.089 399.792 353.828L336.914 353.866C325.535 353.904 314.037 354.249 302.675 353.862C301.347 353.817 300.243 353.801 299.16 352.948C297.869 349.25 298.922 298.591 298.935 289.135C298.994 244.028 298.115 198.783 299.027 153.696Z"/>
	<path fill="#9A6813" d="M406.038 257.752L469.016 257.716L468.978 268.613L380.16 268.722L317.521 268.689L317.535 257.946L406.038 257.752Z"/>
	<path fill="#D09C31" d="M317.491 279.976L468.715 280.04L468.753 290.632C464.246 291.382 458.931 290.841 454.317 290.827L426.67 290.8C390.293 290.802 353.867 290.378 317.496 290.896L317.491 279.976Z"/>
	<path fill="#D09C31" d="M317.598 169.963L468.943 170.064C469.084 172.686 469.31 175.348 469.261 177.973C469.234 179.43 469.516 179.848 468.441 180.878C443.326 180.339 418.124 180.789 393 180.772C367.885 180.754 342.693 180.287 317.589 180.818L317.598 169.963Z"/>
	<path fill="#D09C31" d="M317.847 213.451L468.864 213.456L468.882 224.121Q393.348 223.801 317.814 224.454L317.847 213.451Z"/>
	<path fill="#D09C31" d="M317.978 235.557L468.959 235.54C469.011 238.161 469.741 244.316 468.337 246.362C451.776 245.824 435.079 246.209 418.504 246.203L317.906 246.415L317.978 235.557Z"/>
	<path fill="#D09C31" d="M317.444 192.468L468.641 192.505L468.629 202.904L317.456 202.979L317.444 192.468Z"/>
	<path fill="#D09C31" d="M337.773 302.245L468.954 301.993L468.902 312.192C462.196 312.057 455.475 312.152 448.768 312.162L317.606 312.586L317.634 302.319L337.773 302.245Z"/>
	<path fill="#D09C31" d="M317.823 323.606C335.107 324.062 352.516 323.66 369.809 323.645L469.271 323.488C469.335 326.81 469.292 330.141 469.298 333.463L317.846 333.431C317.789 330.159 317.827 326.88 317.823 323.606Z"/>
	<path fill="#D09C31" d="M491.018 302.343L584.548 302.302L584.518 313.47L491.023 313.508L491.018 302.343Z"/>
	<path fill="#9A6813" d="M647.978 257.745C667.047 257.442 686.162 257.707 705.236 257.697C704.866 261.343 704.989 265.072 704.977 268.737C693.214 268.439 681.394 268.644 669.625 268.635L610.54 268.744L610.516 257.98L647.978 257.745Z"/>
	<path fill="#9A6813" d="M491.197 257.509L584.468 257.586L584.418 268.743C553.363 267.918 522.129 268.512 491.054 268.459C490.442 264.728 490.823 261.243 491.197 257.509Z"/>
	<path fill="#D09C31" d="M610.568 302.47L704.978 302.488C704.955 306.005 705.102 309.506 705.253 313.019L610.446 313.619L610.568 302.47Z"/>
	<path fill="#D09C31" d="M491.203 280.143Q537.864 280.273 584.525 279.911L584.466 290.821L491.192 290.895L491.203 280.143Z"/>
	<path fill="#D09C31" d="M491.607 169.924L584.553 170.039C584.592 173.502 584.973 177.392 584.301 180.777L491.351 180.871C491.312 177.201 491.353 173.586 491.607 169.924Z"/>
	<path fill="#D09C31" d="M610.931 235.381L705.434 235.519L705.433 245.985L610.898 246.05L610.931 235.381Z"/>
	<path fill="#D09C31" d="M610.572 213.417L705.028 213.466L705.287 223.831C697.169 224.993 684.336 223.996 675.766 223.986L610.624 223.977L610.572 213.417Z"/>
	<path fill="#D09C31" d="M611.346 170.07L704.847 170.165L704.734 180.825C673.602 180.227 642.306 180.641 611.166 180.853L611.346 170.07Z"/>
	<path fill="#D09C31" d="M491.077 235.513L584.509 235.49L584.511 246.239Q537.792 245.955 491.071 246.166L491.077 235.513Z"/>
	<path fill="#D09C31" d="M610.619 280.381C642.034 279.635 673.641 280.397 705.076 280.268L704.974 290.849C673.543 290.191 641.988 290.815 610.541 290.867L610.619 280.381Z"/>
	<path fill="#D09C31" d="M491.662 213.421L584.467 213.473L584.506 224.106C553.524 223.749 522.507 224.026 491.521 224.004L491.662 213.421Z"/>
	<path fill="#D09C31" d="M581.955 192.247C583.251 192.266 583.487 191.993 584.485 192.903C584.797 194.137 584.98 195.108 584.914 196.383C584.8 198.568 584.823 200.745 584.83 202.932L494.875 202.843C493.387 202.846 492.955 203.066 491.774 202.1C491.418 200.904 491.176 199.99 491.253 198.738C491.382 196.654 491.372 194.578 491.381 192.491Q536.669 192.599 581.955 192.247Z"/>
	<path fill="#D09C31" d="M611.081 192.595L704.964 192.505C704.997 195.972 705.113 199.453 704.825 202.912C673.497 202.333 641.984 202.505 610.652 202.907L611.081 192.595Z"/>
	<path fill="#FEFEFE" d="M310.072 129.538C311.418 129.548 312.851 129.506 314.139 129.947C316.248 130.67 318.03 132.413 318.917 134.442C319.806 136.474 319.857 138.692 319.016 140.75C317.936 143.389 316.082 144.545 313.525 145.542C312.265 145.574 311.022 145.585 309.789 145.276C307.83 144.784 305.99 143.36 304.98 141.616C303.845 139.658 303.747 137.393 304.425 135.261C305.375 132.273 307.435 130.96 310.072 129.538Z"/>
	<path fill="#FEFEFE" d="M331.439 130.015C332.84 129.926 334.256 129.837 335.649 130.069C337.838 130.433 339.829 131.992 340.992 133.845C342.061 135.549 342.364 137.539 341.84 139.483C341.087 142.278 339.388 143.528 336.981 144.907C335.598 145.053 334.242 145.173 332.857 144.959C330.698 144.624 328.68 143.173 327.509 141.35Q327.312 141.045 327.148 140.722Q326.983 140.399 326.852 140.061Q326.721 139.723 326.625 139.373Q326.529 139.023 326.468 138.666Q326.408 138.308 326.385 137.946Q326.362 137.584 326.375 137.222Q326.388 136.86 326.438 136.5Q326.489 136.141 326.575 135.789C327.266 132.9 329.046 131.547 331.439 130.015Z"/>
	<path fill="#FEFEFE" d="M354.53 129.549C355.664 129.543 356.767 129.652 357.871 129.914C359.918 130.401 361.726 131.826 362.734 133.67Q362.908 133.991 363.049 134.327Q363.19 134.664 363.296 135.013Q363.402 135.362 363.472 135.72Q363.542 136.078 363.575 136.442Q363.608 136.805 363.605 137.17Q363.601 137.535 363.56 137.897Q363.52 138.26 363.442 138.616Q363.365 138.973 363.252 139.32C362.331 142.193 360.451 143.482 357.84 144.72C356.275 144.729 354.578 144.788 353.088 144.231C351.233 143.538 349.709 141.993 348.897 140.202C348.067 138.369 348.041 136.353 348.806 134.491C349.94 131.73 351.871 130.603 354.53 129.549Z"/>
	<path fill="#111" d="M0 660.604C26.8739 688.937 53.2051 718.077 81.1108 745.384L80.6872 1024L0 1024L0 660.604Z"/>
	<path fill="#FEFEFE" d="M27.9047 742.042C31.5572 741.555 35.7156 742.038 39.1394 743.396C44.4565 745.504 48.39 749.823 50.4314 755.121C52.5521 760.625 52.4327 766.605 49.8339 771.925C46.7832 778.17 41.4627 781.12 35.1444 783.158C30.5653 783.706 26.2954 783.376 22.0907 781.313Q21.6117 781.073 21.1453 780.809Q20.6789 780.545 20.2262 780.259Q19.7735 779.972 19.3356 779.663Q18.8978 779.354 18.4758 779.024Q18.0539 778.694 17.649 778.343Q17.2441 777.992 16.8571 777.621Q16.4702 777.251 16.1022 776.861Q15.7342 776.472 15.3861 776.065Q15.038 775.657 14.7106 775.233Q14.3833 774.809 14.0774 774.369Q13.7716 773.929 13.4881 773.474Q13.2045 773.02 12.944 772.551Q12.6835 772.083 12.4467 771.602Q12.2098 771.122 11.9972 770.63Q11.7846 770.138 11.5968 769.636Q11.409 769.135 11.2464 768.624C9.64494 763.51 10.3304 757.916 12.8367 753.209C16.1969 746.898 21.4077 744.176 27.9047 742.042Z"/>
	<path fill="#111" d="M943.708 746.473C946.854 742.163 950.946 738.355 954.668 734.532C962.475 726.511 970.507 718.722 978.351 710.738Q991.632 697.239 1004.75 683.582C1011.09 676.931 1017.28 670.02 1024 663.745L1024 1024L943.955 1024L943.959 850.453C943.949 815.813 944.481 781.102 943.708 746.473Z"/>
	<path fill="#FEFEFE" d="M989.417 742.153C994.402 742.12 999.245 742.971 1003.38 745.93C1008.11 749.32 1011.32 754.764 1012.26 760.488Q1012.35 761.013 1012.41 761.542Q1012.47 762.071 1012.5 762.602Q1012.54 763.133 1012.55 763.666Q1012.55 764.198 1012.53 764.73Q1012.51 765.262 1012.47 765.793Q1012.42 766.323 1012.35 766.851Q1012.28 767.378 1012.18 767.901Q1012.08 768.424 1011.95 768.942Q1011.83 769.459 1011.68 769.969Q1011.53 770.48 1011.35 770.982Q1011.17 771.484 1010.97 771.977Q1010.77 772.47 1010.54 772.952Q1010.32 773.434 1010.07 773.904Q1009.82 774.374 1009.54 774.83Q1009.27 775.287 1008.97 775.73Q1008.68 776.172 1008.36 776.599C1004.54 781.649 999.296 783.703 993.239 784.606C987.877 784.74 983.292 784.038 978.722 781.001Q978.269 780.699 977.833 780.374Q977.397 780.049 976.977 779.702Q976.558 779.355 976.158 778.987Q975.757 778.619 975.375 778.23Q974.994 777.842 974.633 777.435Q974.272 777.027 973.933 776.602Q973.593 776.177 973.276 775.735Q972.959 775.292 972.665 774.834Q972.371 774.376 972.101 773.904Q971.831 773.432 971.585 772.946Q971.34 772.46 971.12 771.962Q970.9 771.465 970.705 770.956Q970.511 770.448 970.343 769.93Q970.175 769.413 970.034 768.887Q969.893 768.362 969.779 767.83Q969.665 767.297 969.579 766.76Q969.491 766.229 969.43 765.695Q969.369 765.161 969.334 764.624Q969.3 764.088 969.293 763.55Q969.285 763.012 969.305 762.475Q969.324 761.938 969.37 761.402Q969.417 760.866 969.49 760.333Q969.563 759.801 969.663 759.272Q969.762 758.744 969.888 758.221Q970.014 757.698 970.166 757.182Q970.318 756.667 970.496 756.159Q970.674 755.652 970.877 755.154Q971.08 754.656 971.307 754.168Q971.535 753.681 971.786 753.206Q972.038 752.731 972.313 752.269Q972.588 751.807 972.886 751.359Q973.184 750.911 973.504 750.479C977.567 744.994 982.96 743.158 989.417 742.153Z"/>
	<path fill="#111" d="M329.106 627.087L689.459 627.6L689.497 652.02L939.577 652.012C939.657 673.565 940.044 695.17 939.646 716.717L689.94 716.876L690.087 888.905L330.33 889.107L330.186 816.253C330.31 783.015 330.782 749.681 330.18 716.452C318.41 716.018 306.563 716.342 294.783 716.396L237.902 716.539L84.5417 716.567L84.9958 651.958L329.104 651.922L329.106 627.087Z"/>
	<path fill="#9A6813" d="M330.18 716.452L689.94 716.876L690.087 888.905L330.33 889.107L330.186 816.253C330.31 783.015 330.782 749.681 330.18 716.452Z"/>
	<path fill="#FEFEFE" d="M404.352 739.933C429.931 739.172 455.715 739.871 481.32 739.874L620.39 739.83C620.266 753.088 621.413 862.325 619.868 865.29L618.625 865.53L404.499 865.904Q404.051 802.919 404.352 739.933Z"/>
	<path fill="#111" d="M521.05 757.998L543.55 757.988Q543.467 779.205 543.606 800.422C543.635 808.501 544.57 817.766 542.888 825.65Q542.692 826.532 542.436 827.398Q542.18 828.264 541.865 829.111Q541.551 829.958 541.179 830.781Q540.807 831.604 540.379 832.4Q539.951 833.195 539.47 833.96Q538.989 834.724 538.457 835.454Q537.924 836.184 537.343 836.875Q536.762 837.567 536.135 838.217C527.639 847.022 517.002 846.517 505.817 846.573C493.826 846.633 482.085 847.585 472.897 838.159C461.862 826.836 463.791 810.222 463.847 795.75Q463.784 777.228 463.927 758.706L487.862 758.604L487.817 795.833C487.815 802.695 487.086 810.273 488.471 817.011C489.037 819.765 490.31 822.274 492.111 824.428C495.226 828.153 500.131 830.502 504.98 830.73C509.284 830.932 514.706 828.33 517.708 825.345C519.886 823.181 520.501 820.809 520.968 817.835C522.047 810.96 521.182 803.088 521.114 796.112L521.05 757.998Z"/>
	<path fill="#111" d="M635.421 744.11C649.897 744.123 664.517 743.737 678.975 744.386C678.998 751.88 680.115 800.906 679.11 802.946C679.011 804.15 678.856 805.326 679.058 806.527L635.531 806.5L635.527 802.877Q635.243 773.494 635.421 744.11Z"/>
	<path fill="#FEBE4F" d="M635.527 802.877C650.036 802.884 664.609 802.599 679.11 802.946C679.011 804.15 678.856 805.326 679.058 806.527L635.531 806.5L635.527 802.877Z"/>
	<path fill="#111" d="M679.058 806.527C680.073 809.903 679.217 818.379 679.212 822.262L679.172 864.893L635.443 865.021C635.316 845.553 634.988 825.959 635.531 806.5L679.058 806.527Z"/>
	<path fill="#111" d="M345.619 746.11L387.505 746.058C387.203 764.863 387.418 783.707 387.387 802.516L345.826 802.576Q345.908 774.342 345.619 746.11Z"/>
	<path fill="#111" d="M345.766 808.541L387.496 808.551C387.521 826.985 388.366 845.805 387.391 864.193L386.556 864.7L345.858 864.715L345.766 808.541Z"/>
	<path fill="#D09C31" d="M426.609 645.031C505.681 645.993 584.791 645.02 663.868 645.089L663.937 651.777C655.863 652.547 646.912 651.785 638.769 651.717L588.586 651.463Q507.618 651.177 426.651 651.812L426.609 645.031Z"/>
	<path fill="#D09C31" d="M426.622 664.547L660.036 664.645C661.175 664.653 661.995 664.714 663.053 665.184C663.902 666.847 663.501 668.412 663.375 670.24L504.602 670.32L449.673 670.195C444.204 670.166 433.657 670.911 428.714 670.05C427.939 669.916 427.792 669.809 427.167 669.519C426.206 668.16 426.559 666.155 426.622 664.547Z"/>
	<path fill="#FEFEFE" d="M112.361 666.543C116.619 666.264 120.143 666.381 124.05 668.295Q124.487 668.507 124.912 668.74Q125.337 668.974 125.75 669.229Q126.162 669.484 126.561 669.76Q126.96 670.036 127.345 670.332Q127.729 670.628 128.098 670.943Q128.467 671.258 128.819 671.592Q129.171 671.925 129.506 672.277Q129.841 672.628 130.157 672.996Q130.474 673.363 130.771 673.747Q131.068 674.13 131.345 674.529Q131.622 674.927 131.878 675.339Q132.135 675.751 132.37 676.175Q132.605 676.6 132.818 677.036Q133.031 677.471 133.221 677.918Q133.411 678.364 133.579 678.819Q133.746 679.275 133.89 679.738C135.398 684.585 134.875 690.255 132.334 694.668C129.459 699.662 125.026 701.843 119.742 703.412C115.68 704.071 112.023 703.661 108.31 701.809Q107.87 701.588 107.442 701.345Q107.014 701.102 106.599 700.838Q106.184 700.574 105.782 700.289Q105.38 700.005 104.993 699.701Q104.606 699.397 104.235 699.074Q103.864 698.75 103.509 698.409Q103.154 698.068 102.817 697.71Q102.48 697.351 102.161 696.976Q101.842 696.601 101.542 696.211Q101.243 695.821 100.963 695.416Q100.683 695.011 100.423 694.593Q100.164 694.174 99.9258 693.744Q99.6877 693.313 99.4713 692.871Q99.255 692.429 99.061 691.977Q98.867 691.524 98.6958 691.063Q98.5246 690.601 98.3767 690.132Q98.1156 689.273 97.9405 688.391Q97.7654 687.51 97.6779 686.616Q97.5904 685.722 97.5915 684.824Q97.5925 683.926 97.682 683.032Q97.7716 682.138 97.9487 681.258Q98.1259 680.377 98.3889 679.518Q98.652 678.659 98.9984 677.83Q99.3447 677.002 99.7711 676.211C102.582 670.893 106.868 668.365 112.361 666.543Z"/>
	<path fill="#9A6813" d="M115.006 679.52C115.747 679.492 116.52 679.438 117.262 679.524C118.943 679.72 120.513 680.8 121.339 682.269C122.057 683.547 122.134 684.958 121.77 686.348C121.161 688.675 119.763 689.656 117.797 690.868C117.237 690.841 116.677 690.811 116.119 690.748C114.233 690.532 112.664 689.732 111.551 688.158C110.598 686.811 110.426 685.392 110.808 683.812C111.341 681.61 113.177 680.55 115.006 679.52Z"/>
	<path fill="#FEFEFE" d="M292.754 666.626C295.957 666.164 300.255 667.515 303.005 669.137C307.449 671.758 310.627 676.448 311.674 681.473C312.68 686.305 311.607 691.188 308.83 695.253C305.504 700.121 301.017 702.369 295.42 703.524C290.856 703.656 287.009 703.051 283.126 700.469Q282.73 700.201 282.348 699.914Q281.966 699.626 281.599 699.32Q281.232 699.013 280.881 698.689Q280.53 698.364 280.196 698.022Q279.861 697.68 279.545 697.322Q279.228 696.964 278.93 696.59Q278.632 696.216 278.353 695.828Q278.074 695.44 277.816 695.038Q277.557 694.636 277.318 694.221Q277.08 693.807 276.863 693.381Q276.646 692.955 276.451 692.518Q276.256 692.082 276.083 691.636Q275.91 691.19 275.759 690.737Q275.609 690.283 275.482 689.822Q275.355 689.361 275.251 688.894Q275.147 688.427 275.067 687.956Q274.922 687.092 274.863 686.218Q274.804 685.344 274.832 684.469Q274.859 683.593 274.974 682.725Q275.088 681.857 275.288 681.004Q275.488 680.151 275.772 679.322Q276.055 678.494 276.419 677.697Q276.783 676.9 277.225 676.144Q277.666 675.387 278.18 674.678C281.802 669.606 286.845 667.61 292.754 666.626Z"/>
	<path fill="#9A6813" d="M292.016 679.407C292.27 679.4 292.523 679.383 292.777 679.385C294.636 679.403 296.56 680.079 297.818 681.508C298.752 682.57 299.085 683.911 298.911 685.299C298.575 687.971 296.985 689.09 294.939 690.556C294.65 690.561 294.362 690.571 294.073 690.572C292.328 690.574 290.783 689.992 289.597 688.691C288.535 687.527 288.123 686.033 288.331 684.48C288.674 681.906 290.024 680.833 292.016 679.407Z"/>
	<path fill="#FEFEFE" d="M173.941 666.573Q175.112 666.473 176.287 666.506Q177.461 666.54 178.625 666.705Q179.788 666.87 180.926 667.166Q182.063 667.461 183.16 667.883Q183.616 668.059 184.062 668.259Q184.509 668.459 184.944 668.681Q185.38 668.903 185.803 669.148Q186.227 669.392 186.637 669.658Q187.048 669.924 187.444 670.21Q187.84 670.497 188.221 670.803Q188.602 671.11 188.967 671.435Q189.331 671.761 189.679 672.105Q190.027 672.449 190.356 672.81Q190.685 673.172 190.996 673.549Q191.306 673.927 191.597 674.32Q191.887 674.714 192.157 675.121Q192.427 675.529 192.676 675.95Q192.925 676.371 193.152 676.804Q193.378 677.237 193.583 677.682Q193.787 678.126 193.968 678.58Q194.301 679.426 194.549 680.301Q194.796 681.176 194.955 682.071Q195.115 682.967 195.184 683.873Q195.254 684.78 195.233 685.689Q195.212 686.598 195.101 687.5Q194.99 688.403 194.79 689.29Q194.589 690.177 194.302 691.04Q194.015 691.902 193.643 692.732C191.013 698.668 186.238 701.455 180.487 703.748C176.151 704.453 172.399 703.977 168.503 701.804Q168.068 701.558 167.646 701.291Q167.224 701.024 166.817 700.735Q166.409 700.447 166.016 700.139Q165.623 699.83 165.246 699.502Q164.869 699.175 164.51 698.828Q164.15 698.482 163.808 698.118Q163.466 697.754 163.143 697.373Q162.82 696.992 162.516 696.595Q162.213 696.198 161.93 695.787Q161.647 695.376 161.384 694.951Q161.122 694.525 160.882 694.087Q160.642 693.65 160.424 693.2Q160.206 692.751 160.011 692.291Q159.816 691.831 159.645 691.362Q159.473 690.893 159.325 690.416Q159.177 689.939 159.054 689.455Q158.832 688.583 158.696 687.693Q158.561 686.804 158.514 685.905Q158.467 685.007 158.509 684.108Q158.551 683.209 158.681 682.318Q158.811 681.428 159.029 680.555Q159.246 679.682 159.549 678.834Q159.852 677.987 160.236 677.173Q160.621 676.36 161.084 675.588C164.064 670.519 168.413 667.993 173.941 666.573Z"/>
	<path fill="#9A6813" d="M174.464 679.987C175.064 679.924 175.654 679.858 176.258 679.866C178.025 679.892 180.047 680.451 181.219 681.869C182.174 683.023 182.454 683.963 182.28 685.451C182.041 687.503 180.436 688.759 178.939 689.946C178.14 690.026 177.288 690.141 176.486 690.105C174.792 690.029 172.85 689.321 171.783 687.918C170.873 686.723 170.64 685.808 170.859 684.323C171.177 682.175 172.826 681.125 174.464 679.987Z"/>
	<path fill="#FEFEFE" d="M903.739 667.587C907.726 667.129 911.493 667.202 915.227 668.846C919.99 670.942 923.804 675.229 925.466 680.147Q925.752 680.997 925.952 681.871Q926.153 682.745 926.266 683.635Q926.378 684.524 926.403 685.421Q926.427 686.317 926.362 687.211Q926.297 688.106 926.144 688.989Q925.991 689.873 925.751 690.737Q925.511 691.601 925.187 692.437Q924.862 693.273 924.457 694.073C921.954 699.064 917.88 701.673 912.702 703.321C908.434 704.25 904.619 704.373 900.534 702.585Q899.721 702.224 898.948 701.783Q898.175 701.342 897.449 700.827Q896.724 700.311 896.054 699.725Q895.384 699.14 894.776 698.49Q894.168 697.841 893.628 697.133Q893.087 696.426 892.62 695.669Q892.154 694.911 891.765 694.111Q891.376 693.31 891.069 692.475Q890.901 692.024 890.757 691.564Q890.612 691.105 890.49 690.639Q890.368 690.174 890.27 689.702Q890.172 689.231 890.097 688.755Q890.022 688.28 889.971 687.801Q889.919 687.322 889.892 686.842Q889.865 686.361 889.862 685.88Q889.858 685.398 889.879 684.917Q889.9 684.436 889.944 683.957Q889.989 683.477 890.057 683.001Q890.125 682.524 890.217 682.052Q890.309 681.579 890.425 681.112Q890.54 680.644 890.678 680.183Q890.817 679.722 890.978 679.268Q891.139 678.815 891.323 678.37Q891.506 677.924 891.712 677.489C894.274 672.086 898.376 669.582 903.739 667.587Z"/>
	<path fill="#D09C31" d="M905.898 680.52C908.188 680.41 910.227 680.285 912.014 681.983C913.073 682.991 913.765 684.405 913.602 685.891C913.328 688.388 911.658 689.801 909.713 691.096C908.643 691.103 907.473 691.155 906.431 690.889C904.881 690.494 903.375 689.241 902.57 687.87C901.891 686.713 901.721 685.436 902.144 684.145C902.772 682.228 904.255 681.425 905.898 680.52Z"/>
	<path fill="#FEFEFE" d="M233.452 666.567C237.104 666.387 240.258 666.792 243.565 668.482Q243.996 668.706 244.416 668.952Q244.835 669.197 245.241 669.465Q245.647 669.732 246.038 670.02Q246.429 670.308 246.805 670.616Q247.181 670.924 247.54 671.252Q247.9 671.579 248.242 671.924Q248.583 672.27 248.907 672.633Q249.23 672.996 249.534 673.375Q249.838 673.754 250.122 674.148Q250.406 674.543 250.668 674.952Q250.931 675.36 251.173 675.782Q251.414 676.204 251.633 676.638Q251.852 677.072 252.048 677.517Q252.244 677.961 252.416 678.416Q252.589 678.87 252.738 679.333Q252.887 679.795 253.011 680.265C254.326 685.035 253.787 690.146 251.29 694.441C248.279 699.623 243.754 702.058 238.125 703.426C234.099 703.786 230.628 703.326 227.005 701.389Q226.206 700.964 225.453 700.462Q224.699 699.959 224 699.384Q223.301 698.809 222.663 698.167Q222.024 697.526 221.453 696.823Q220.882 696.121 220.383 695.365Q219.885 694.61 219.465 693.808Q219.044 693.006 218.706 692.167Q218.367 691.327 218.114 690.458Q217.859 689.58 217.691 688.68Q217.523 687.781 217.444 686.869Q217.365 685.958 217.376 685.043Q217.387 684.128 217.487 683.219Q217.587 682.31 217.776 681.415Q217.965 680.519 218.241 679.647Q218.517 678.775 218.877 677.934Q219.237 677.093 219.678 676.291C222.754 670.732 227.597 668.258 233.452 666.567Z"/>
	<path fill="#D09C31" d="M233.483 680.078C234.098 679.994 234.713 679.913 235.332 679.871C237.268 679.743 239.05 680.533 240.412 681.891C241.454 682.929 242.078 684.357 241.865 685.845C241.552 688.034 240.043 689.024 238.333 690.11C237.643 690.229 236.946 690.366 236.242 690.379C234.436 690.411 232.451 689.661 231.239 688.295C230.358 687.302 229.986 686.047 230.121 684.741C230.355 682.47 231.8 681.373 233.483 680.078Z"/>
	<path fill="#FEFEFE" d="M784.646 667.643C788.797 667.229 792.083 667.155 796.027 668.868Q796.862 669.226 797.657 669.664Q798.453 670.102 799.201 670.616Q799.95 671.13 800.646 671.714Q801.341 672.298 801.975 672.948Q802.61 673.598 803.178 674.306Q803.746 675.014 804.243 675.775Q804.739 676.536 805.159 677.341Q805.578 678.146 805.917 678.989Q806.237 679.814 806.473 680.668Q806.71 681.521 806.859 682.394Q807.009 683.266 807.072 684.149Q807.134 685.032 807.107 685.917Q807.081 686.802 806.967 687.68Q806.852 688.558 806.651 689.42Q806.449 690.282 806.163 691.12Q805.876 691.958 805.508 692.763C803.064 698.091 798.839 700.786 793.558 702.719C789.599 703.341 785.423 703.134 781.735 701.473C777.193 699.428 773.8 695.366 772.148 690.71Q771.847 689.884 771.629 689.031Q771.411 688.179 771.279 687.31Q771.147 686.44 771.102 685.562Q771.057 684.683 771.099 683.805Q771.141 682.926 771.27 682.056Q771.399 681.186 771.613 680.333Q771.828 679.48 772.126 678.652Q772.424 677.825 772.803 677.031C775.294 671.85 779.425 669.422 784.646 667.643Z"/>
	<path fill="#D09C31" d="M786.445 679.497C789.073 679.383 791.352 679.462 793.337 681.436C794.362 682.456 794.88 683.842 794.677 685.286C794.379 687.41 793.083 688.672 791.523 689.989C790.776 690.059 789.984 690.156 789.234 690.117C787.349 690.017 785.672 689.161 784.474 687.699C783.465 686.467 783.14 685.07 783.41 683.516C783.761 681.5 784.922 680.643 786.445 679.497Z"/>
	<path fill="#FEFEFE" d="M844.283 667.545C848.661 667.373 852.316 667.306 856.383 669.276Q857.192 669.666 857.958 670.135Q858.725 670.604 859.441 671.146Q860.157 671.688 860.816 672.299Q861.475 672.909 862.07 673.582Q862.665 674.255 863.191 674.983Q863.717 675.712 864.167 676.489Q864.618 677.266 864.99 678.084Q865.361 678.901 865.65 679.752Q865.926 680.609 866.116 681.489Q866.307 682.369 866.41 683.263Q866.513 684.157 866.529 685.057Q866.544 685.957 866.471 686.854Q866.397 687.752 866.237 688.637Q866.076 689.523 865.829 690.389Q865.582 691.254 865.251 692.092Q864.921 692.929 864.51 693.73C862.043 698.493 857.822 701.401 852.799 702.951C848.672 703.386 845.081 703.131 841.249 701.417Q840.428 701.05 839.647 700.603Q838.866 700.157 838.134 699.635Q837.401 699.114 836.723 698.523Q836.045 697.932 835.429 697.277Q834.813 696.621 834.265 695.908Q833.716 695.196 833.241 694.432Q832.766 693.668 832.368 692.862Q831.971 692.055 831.655 691.213Q831.35 690.386 831.128 689.533Q830.905 688.68 830.768 687.809Q830.631 686.938 830.581 686.058Q830.53 685.178 830.566 684.298Q830.602 683.417 830.725 682.544Q830.848 681.671 831.056 680.814Q831.265 679.958 831.556 679.126Q831.848 678.294 832.22 677.495C834.703 672.223 839.026 669.494 844.283 667.545Z"/>
	<path fill="#9A6813" d="M846.418 680.541C848.598 680.387 850.412 680.245 852.294 681.549C853.63 682.475 854.243 683.538 854.394 685.144C854.596 687.297 853.152 688.937 851.819 690.421C851.158 690.531 850.414 690.69 849.737 690.697C847.916 690.715 846.386 690.171 845.134 688.85C844.189 687.853 843.731 686.682 843.774 685.306C843.844 683.056 844.838 681.966 846.418 680.541Z"/>
	<path fill="#FEFEFE" d="M726.289 667.606C730.553 667.328 734.534 667.643 738.348 669.773Q739.079 670.178 739.767 670.653Q740.454 671.128 741.091 671.669Q741.728 672.21 742.308 672.811Q742.888 673.413 743.406 674.069Q743.924 674.724 744.374 675.428Q744.824 676.133 745.203 676.878Q745.581 677.623 745.883 678.402Q746.186 679.181 746.41 679.986Q746.53 680.412 746.628 680.844Q746.726 681.276 746.801 681.713Q746.876 682.149 746.928 682.589Q746.98 683.029 747.009 683.471Q747.038 683.913 747.043 684.356Q747.049 684.799 747.031 685.241Q747.014 685.684 746.973 686.125Q746.932 686.566 746.868 687.004Q746.804 687.442 746.717 687.877Q746.631 688.311 746.521 688.74Q746.412 689.169 746.28 689.592Q746.148 690.015 745.994 690.43Q745.84 690.846 745.665 691.252Q745.489 691.659 745.293 692.056Q745.096 692.453 744.879 692.839Q744.662 693.225 744.425 693.599C741.578 698.137 737.194 700.728 732.074 701.924C728.325 702.226 724.759 701.988 721.31 700.329Q720.906 700.131 720.513 699.912Q720.12 699.693 719.739 699.454Q719.358 699.216 718.989 698.958Q718.62 698.7 718.265 698.424Q717.91 698.148 717.57 697.854Q717.229 697.56 716.904 697.25Q716.579 696.939 716.27 696.612Q715.961 696.285 715.669 695.942Q715.378 695.6 715.104 695.243Q714.83 694.887 714.574 694.516Q714.319 694.146 714.082 693.763Q713.846 693.38 713.63 692.986Q713.413 692.592 713.217 692.187Q713.021 691.782 712.846 691.368Q712.671 690.953 712.517 690.531Q712.363 690.108 712.231 689.678C710.91 685.506 711.151 681.048 713.201 677.151C715.988 671.85 720.748 669.217 726.289 667.606Z"/>
	<path fill="#9A6813" d="M726.217 680.065L726.982 680.022C729.411 679.889 732.398 679.75 734.136 681.859C734.728 682.579 734.929 683.242 734.891 684.141C734.796 686.357 733.153 687.825 731.64 689.244C730.997 689.397 730.99 689.415 730.243 689.505C728.346 689.733 726.619 689.322 725.18 688.034C724.16 687.122 723.565 685.923 723.587 684.533C723.621 682.446 724.769 681.327 726.217 680.065Z"/>
	<path fill="#D09C31" d="M348.436 641.002L373.949 640.862L373.972 655.077L348.44 655.032L348.436 641.002Z"/>
	<path fill="#D09C31" d="M348.06 666.453C356.684 666.268 365.345 666.443 373.974 666.454L373.992 680.167L348.082 680.181L348.06 666.453Z"/>
	<path fill="#D09C31" d="M383.02 641.034L408.001 641.031L408.018 655.007L383.015 655.069L383.02 641.034Z"/>
	<path fill="#D09C31" d="M348.107 690.997C356.604 690.83 365.119 690.932 373.619 690.925L373.629 704.538L348.155 704.498C347.915 700.018 348.079 695.483 348.107 690.997Z"/>
	<path fill="#D09C31" d="M382.863 666.439C391.211 666.313 399.576 666.413 407.926 666.404L407.915 680.023L382.774 680.047C382.754 675.513 382.831 670.974 382.863 666.439Z"/>
	<path fill="#D09C31" d="M382.849 690.972L407.72 690.953L407.705 704.404C399.525 704.828 391.124 704.413 382.921 704.392L382.849 690.972Z"/>
	<path fill="#111" d="M199.14 738.232C226.183 737.367 252.461 745.576 273.079 763.484C294.6 782.177 307.506 807.284 309.482 835.746C311.531 865.25 303.554 890.161 283.995 912.504C264.488 934.787 237.764 947.269 208.374 949.168C182.666 950.847 155.145 941.243 135.709 924.508C113.269 905.186 101.106 880.113 98.9707 850.72Q98.8877 849.422 98.8362 848.122Q98.7847 846.822 98.7648 845.521Q98.7449 844.22 98.7565 842.919Q98.7681 841.618 98.8113 840.318Q98.8545 839.018 98.9292 837.719Q99.0039 836.42 99.1101 835.124Q99.2163 833.827 99.3539 832.533Q99.4915 831.24 99.6605 829.95Q99.8294 828.66 100.03 827.374Q100.23 826.089 100.461 824.809Q100.692 823.528 100.955 822.254Q101.217 820.98 101.51 819.713Q101.803 818.445 102.127 817.185Q102.451 815.925 102.805 814.673Q103.159 813.421 103.544 812.179Q103.928 810.936 104.343 809.703Q104.758 808.469 105.202 807.247Q105.646 806.024 106.12 804.812Q106.594 803.601 107.097 802.401Q107.6 801.201 108.132 800.014Q108.664 798.827 109.225 797.653Q109.786 796.479 110.375 795.319Q110.964 794.159 111.581 793.014Q112.198 791.869 112.843 790.739Q113.487 789.609 114.159 788.495Q114.831 787.38 115.529 786.283Q116.228 785.186 116.953 784.105Q117.678 783.025 118.429 781.963Q119.18 780.901 119.957 779.857Q120.734 778.813 121.535 777.789Q122.337 776.764 123.163 775.759Q123.99 774.754 124.84 773.77C143.507 752.302 171.001 740.095 199.14 738.232Z"/>
	<path fill="#FEFEFE" d="M200.355 823.583C204.417 823.425 208.531 823.87 212.269 825.56Q212.72 825.764 213.16 825.991Q213.6 826.218 214.028 826.467Q214.456 826.716 214.871 826.987Q215.286 827.257 215.686 827.549Q216.086 827.84 216.471 828.151Q216.856 828.463 217.225 828.793Q217.594 829.124 217.945 829.473Q218.296 829.822 218.629 830.188Q218.963 830.555 219.277 830.937Q219.591 831.32 219.885 831.719Q220.179 832.117 220.452 832.53Q220.725 832.943 220.978 833.369Q221.23 833.795 221.46 834.234Q221.69 834.672 221.897 835.122Q222.104 835.571 222.288 836.031Q222.473 836.491 222.633 836.959C224.426 842.087 224.104 847.657 221.569 852.477C218.45 858.408 213.38 861.493 207.189 863.416C203.035 863.867 199.444 863.6 195.578 861.862Q195.12 861.656 194.673 861.426Q194.225 861.197 193.79 860.946Q193.355 860.695 192.933 860.422Q192.511 860.149 192.103 859.855Q191.695 859.562 191.303 859.248Q190.91 858.934 190.534 858.601Q190.157 858.268 189.798 857.916Q189.439 857.565 189.098 857.196Q188.757 856.827 188.435 856.441Q188.113 856.055 187.81 855.654Q187.508 855.252 187.226 854.836Q186.944 854.42 186.684 853.99Q186.423 853.561 186.184 853.119Q185.946 852.676 185.729 852.223Q185.513 851.769 185.32 851.305Q185.127 850.841 184.957 850.368C183.185 845.338 183.649 839.8 185.964 835.024C188.962 828.84 194.079 825.703 200.355 823.583Z"/>
	<path fill="#111" d="M813.572 738.208L814.576 738.14C841.392 736.564 869.721 747.409 889.603 765.131Q890.568 765.985 891.511 766.864Q892.454 767.742 893.375 768.643Q894.296 769.544 895.195 770.467Q896.094 771.391 896.969 772.336Q897.845 773.281 898.697 774.248Q899.549 775.215 900.377 776.202Q901.205 777.19 902.008 778.197Q902.811 779.205 903.589 780.232Q904.368 781.259 905.12 782.305Q905.873 783.351 906.599 784.415Q907.326 785.479 908.026 786.561Q908.726 787.643 909.399 788.742Q910.073 789.841 910.719 790.956Q911.365 792.071 911.983 793.201Q912.601 794.332 913.191 795.477Q913.781 796.623 914.343 797.783Q914.904 798.943 915.437 800.116Q915.97 801.289 916.474 802.475Q916.978 803.661 917.452 804.859Q917.927 806.057 918.371 807.267Q918.816 808.476 919.231 809.696Q919.645 810.916 920.03 812.146Q920.414 813.376 920.768 814.615Q921.122 815.854 921.446 817.101Q921.769 818.349 922.061 819.604Q922.354 820.859 922.615 822.121Q922.877 823.382 923.107 824.65Q923.337 825.918 923.536 827.191Q923.735 828.464 923.902 829.742Q924.07 831.02 924.205 832.301Q924.341 833.583 924.445 834.867Q924.55 836.151 924.622 837.438C926.233 865.267 917.578 891.561 898.877 912.434C880.516 932.927 853.89 947.428 826.124 948.968C798.606 950.753 772.043 942.506 751.119 924.422C728.272 904.676 715.387 877.213 713.334 847.252C711.53 820.929 722.651 793.062 739.968 773.497C759.333 751.619 784.67 740.068 813.572 738.208Z"/>
	<path fill="#FEFEFE" d="M814.913 823.073C819.09 822.904 822.779 822.904 826.731 824.554C832.043 826.771 836.606 831.259 838.571 836.704C840.21 841.245 839.896 846.499 837.825 850.852C834.908 856.985 829.786 860.44 823.629 862.766C818.889 863.684 814.951 863.611 810.544 861.381Q810.067 861.137 809.603 860.869Q809.139 860.601 808.689 860.31Q808.239 860.02 807.803 859.707Q807.368 859.394 806.949 859.06Q806.53 858.726 806.128 858.372Q805.727 858.017 805.343 857.643Q804.959 857.269 804.594 856.877Q804.23 856.484 803.885 856.074Q803.541 855.663 803.217 855.237Q802.893 854.81 802.591 854.367Q802.289 853.924 802.009 853.467Q801.729 853.01 801.473 852.54Q801.216 852.069 800.984 851.587Q800.751 851.104 800.542 850.61Q800.334 850.117 800.15 849.613Q799.966 849.11 799.808 848.598C798.211 843.37 799.009 837.731 801.646 832.979C804.664 827.541 809.085 824.709 814.913 823.073Z"/>
	<path fill="#9A6813" d="M509.242 529.104C513.23 528.65 517.589 529.326 521.177 531.14C526.23 533.695 529.903 538.471 531.459 543.876C532.945 549.038 532.212 554.334 529.508 558.965C526.353 564.37 521.565 567.412 515.674 569.064C510.872 569.956 505.907 568.879 501.784 566.264C497.078 563.279 493.492 558.282 492.412 552.789C491.346 547.361 492.755 541.339 495.967 536.856C499.28 532.231 503.766 529.996 509.242 529.104Z"/>
</svg>
